<?xml version="1.0" standalone="no"?>
<!DOCTYPE svg PUBLIC "-//W3C//DTD SVG 20010904//EN" "http://www.w3.org/TR/2001/REC-SVG-20010904/DTD/svg10.dtd">
<svg version="1.0" xmlns="http://www.w3.org/2000/svg" viewBox="0 0 474 526" preserveAspectRatio="xMidYMid meet">
  <g transform="translate(0.000000,526.000000) scale(0.100000,-0.100000)" fill="#FFFFFF" stroke="none">
    <path d="M2275 5093 c-42 -54 -139 -174 -215 -268 -300 -371 -384 -475 -477 -592 -95 -121 -97 -123 -137 -123 -22 0 -106 -11 -186 -25 -153 -25 -484 -78 -760 -120 -91 -14 -207 -32 -257 -41 -104 -18 -106 -21 -77 -90 9 -22 33 -84 54 -139 43 -117 233 -612 333 -870 39 -99 70 -191 70 -205 0 -14 -30 -101 -67 -195 -279 -706 -416 -1069 -407 -1078 5 -5 66 -17 137 -28 71 -10 181 -28 244 -39 131 -22 476 -77 756 -120 105 -16 198 -32 205 -35 8 -4 97 -110 199 -237 102 -126 247 -307 324 -401 112 -139 321 -400 332 -415 6 -8 36 16 57 45 26 38 233 294 333 413 88 105 432 534 460 574 21 29 28 31 175 52 85 13 285 43 444 69 160 25 391 61 514 80 124 19 228 38 233 43 4 4 -28 100 -71 212 -43 113 -140 367 -215 565 -75 198 -150 393 -167 433 -24 59 -27 76 -18 93 10 20 97 244 234 604 30 77 95 248 145 380 51 132 94 247 97 256 5 18 11 17 -222 54 -82 13 -217 35 -300 49 -230 38 -576 93 -711 112 -116 17 -122 19 -141 48 -11 17 -89 114 -174 216 -85 102 -269 328 -408 503 -139 174 -254 317 -256 317 -1 0 -37 -44 -80 -97z m40 -55 c-12 -68 -89 -366 -245 -948 -54 -201 -192 -703 -197 -716 -3 -8 0 -14 6 -14 11 0 203 109 334 189 78 48 814 475 885 514 29 16 56 27 59 24 4 -5 -565 -389 -924 -622 -84 -54 -151 -100 -150 -102 2 -1 104 20 227 48 124 28 284 63 355 79 72 16 342 77 600 135 259 58 544 122 635 141 91 20 168 38 171 40 10 6 287 62 339 68 34 4 39 3 20 -3 -58 -21 -211 -65 -445 -126 -239 -63 -458 -122 -685 -185 -58 -16 -204 -54 -325 -85 -121 -32 -224 -59 -228 -62 -9 -6 58 -45 548 -323 542 -307 756 -432 750 -439 -6 -5 -423 198 -835 407 -310 157 -360 180 -334 151 17 -19 104 -114 195 -212 90 -99 193 -212 229 -251 76 -85 426 -461 549 -591 48 -49 158 -171 246 -270 88 -98 207 -231 265 -295 119 -130 136 -150 125 -150 -11 0 -424 408 -868 857 -209 211 -383 383 -388 383 -6 0 -7 -289 -3 -737 5 -594 4 -736 -6 -726 -13 12 -24 175 -65 953 -17 327 -19 342 -27 320 -6 -13 -94 -296 -285 -915 -36 -115 -82 -264 -103 -330 -21 -66 -57 -181 -80 -255 -90 -291 -241 -763 -246 -769 -18 -20 -9 34 29 181 25 95 73 279 107 408 33 129 76 291 95 360 19 69 53 193 75 275 22 83 56 206 75 275 19 69 38 138 41 154 l7 29 -59 -33 c-32 -19 -102 -59 -154 -90 -52 -31 -162 -96 -245 -144 -82 -48 -157 -92 -165 -97 -8 -4 -79 -46 -158 -91 -79 -46 -155 -90 -170 -100 -98 -60 -338 -195 -341 -192 -3 3 4 11 15 19 22 18 933 625 1013 675 30 19 49 36 44 37 -6 2 -55 -7 -109 -21 -55 -14 -193 -46 -309 -71 -115 -25 -246 -54 -290 -65 -44 -10 -174 -39 -290 -64 -115 -26 -246 -55 -290 -66 -44 -11 -120 -28 -170 -39 -204 -44 -466 -102 -565 -124 -58 -14 -145 -32 -195 -41 -49 -9 -99 -19 -109 -21 -10 -2 -15 0 -10 4 10 8 226 71 419 121 66 17 217 58 335 90 320 87 534 144 735 195 99 26 184 50 188 55 5 4 -43 36 -105 72 -62 36 -329 188 -593 338 -478 272 -609 350 -590 349 17 0 246 -112 715 -349 245 -124 452 -227 460 -229 8 -2 -33 48 -91 110 -249 270 -758 819 -809 874 -30 34 -138 151 -240 261 -249 270 -493 542 -504 562 -16 29 223 -204 758 -741 284 -284 519 -517 523 -517 3 0 2 342 -2 760 -5 558 -4 760 4 760 6 0 11 -10 11 -22 0 -13 7 -129 15 -258 23 -365 34 -538 45 -755 6 -110 14 -225 17 -255 l6 -55 10 35 c6 19 37 121 69 225 33 105 111 357 174 560 262 844 475 1515 482 1515 2 0 1 -19 -3 -42z"/>
  </g>
</svg>